<svg id="Layer_1" data-name="Layer 1" xmlns="http://www.w3.org/2000/svg" xmlns:xlink="http://www.w3.org/1999/xlink" viewBox="0 0 8383 1388.12"><defs><style>.cls-1{fill-rule:evenodd;fill:url(#linear-gradient);}.cls-2{fill:#303030;}</style><linearGradient id="linear-gradient" x1="1285.04" y1="-580.75" x2="4461.96" y2="-583.98" gradientTransform="matrix(1, 0, 0, -1, 0, 112)" gradientUnits="userSpaceOnUse"><stop offset="0" stop-color="#9a2169"/><stop offset="1" stop-color="#f04f6f"/></linearGradient></defs><path class="cls-1" d="M3581.39,7H3381.47V1110.71h199.92ZM18.11,913.45q56.31,98.84,154.66,156.74c65.64,38.81,139.86,58.21,223.3,58,65.21,0,123.56-11.94,175.47-35.4q77.55-35.19,122.05-101.51T738,836.68c0-65.89-19.74-120.48-59.21-164.2q-59.2-65.25-182.11-119.84L385.56,504c-41.61-18.56-71-35.62-88.16-50.76-17.38-15.14-26-35.4-26-61,0-30.49,11.59-53.73,34.75-69.94S358.32,298,392.85,298q111,0,186.63,112L715.69,305.48q-46-83.8-128.06-133.92c-54.92-33.48-119.7-50.11-194.78-50.11q-91.69,0-165.81,33.91C177.7,178,138.88,210,110.78,251.75s-42.26,90-42.26,145q0,97.25,62.21,163.35T305.34,676.32l105.1,47.13c46.34,21.53,78.73,40.09,97,55.23s27.46,37.1,27.46,65.46c0,33.27-12.44,59.5-37.11,78.69S439,951.62,395.64,951.62c-53.19,0-98.67-12.58-136.21-38.17q-56.31-38.07-103.61-103ZM1055.85,382.26H855.93v728.45h199.92Zm1220.48,64q74,80.28,74,212.6v451.87H2150.41V687c0-43.07-11.79-77.41-35.61-103-23.59-25.59-55.34-38.17-94.82-38.17s-71.86,12.8-97,38.17c-25.09,25.59-37.75,58.43-37.75,98.52v428.2H1685.35V687q0-64.61-35.6-103c-23.6-25.59-55.34-38.17-94.81-38.17-40.54,0-73.14,12.8-97.61,38.17q-37,38.38-37.1,103v423.94H1220.31V382.27h183.61V447.1c24.68-25.59,54.7-45.42,90.32-59.71s74.43-21.32,116.9-21.32q145.11,0,217.73,104.49c28.52-32.42,63.92-57.79,105.75-76.56,41.82-18.55,88.16-27.93,138.36-27.93C2159.2,366.07,2226.77,392.72,2276.33,446.25ZM955.82,299.16c71,0,128.49-57.19,128.49-127.73S1026.78,43.69,955.82,43.69,827.33,100.88,827.33,171.43,884.86,299.16,955.82,299.16ZM3096.6,415.33c53.85,32.84,95.89,78,126.56,135.41s45.91,122.4,46.13,195.12q0,109.08-45.91,195.76-46,87-126.56,136.9c-53.63,33.48-114.77,50.12-182.76,50.12q-66.61,0-122.91-22.82a237.08,237.08,0,0,1-22.83-10.65V914c31.32,22.32,67.47,33.64,108.63,33.64,53.2,0,98.25-18.34,134.72-55.23s54.69-85.09,54.69-145c0-61-18-109.61-54.06-146.5s-81.3-55.23-135.56-55.23c-50.2,0-93.74,16.85-130.21,50.75-35.18,32.63-53.2,80-54.49,142,0,1.28-.05,2.5-.1,3.72v0h0c0,1.22-.1,2.44-.1,3.72v636.26H2494.91V382.27h183.63v91.27c24.66-34.33,57.48-61,98.45-79.54q61.14-27.83,136.85-27.93Q3015.85,366.07,3096.6,415.33Zm964.38,440,190.84-472.95h210.07l-350.61,782.91q-50.25,112.1-119.83,164.44t-171.6,52.4H3685V1213.3h91.62c94.61,0,126.56-46.71,152.68-104.77,4.18-9.29,7.66-17,11-24.48l.16-.33.06-.14c3.56-7.93,7-15.59,11-24.53L3670.43,382.37H3882Z"/><path class="cls-2" d="M7155.83,796.62H6642.08q17.7,69.09,71.86,106.62T6848,940.77q108.12,0,204.22-73.57l82.8,135.42q-130.32,109.06-293.24,109-113.89,0-205.7-50.12c-61.14-33.26-109-79.32-143.51-137.54C6458,865.5,6440.66,801.1,6440.66,730.3s16.73-135.2,50.41-193.63c33.46-58.43,79.8-104.28,138.35-137.54C6688.21,365.86,6753,349,6824.2,349q100.71,0,179.11,45,78.52,44.79,122,122.19,43.76,77.41,43.76,171.45C7169.12,723.05,7164.62,759.3,7155.83,796.62ZM6705.78,549.25q-47.28,39.68-63.7,107.48h333.13c-1.07-45.21-16.73-81-47.41-107.48s-67.56-39.66-111.12-39.66C6774.44,509.59,6737.32,522.81,6705.78,549.25Z"/><path class="cls-2" d="M7821.23,743.11a36.42,36.42,0,0,0,0,4.9q0,98.52-54.7,149.49c-36.47,33.9-80,50.75-130.21,50.75-54.27,0-99.53-18.34-135.35-55.23-36-36.89-54.05-85.51-54.05-146.5,0-59.92,18.23-108.12,54.7-145s81.5-55.23,134.7-55.23q68.2,0,119.27,42.65V404c-43.76-24.73-95.68-37.31-156.38-37.31-68,0-129.13,16.42-182.76,49.26q-80.76,49.26-126.56,136c-30.67,58-45.9,123-45.9,195.76s15.23,137.76,45.9,195.76,72.72,103.21,126.56,136,114.77,49.26,182.76,49.26c50.41,0,95.89-9.38,136.86-27.93s73.78-45.21,98.46-79.55v89.78h185.76V7.62H7821.23Z"/><path class="cls-2" d="M8327.6,1074.15a127.2,127.2,0,0,0,0-180.64c-50.17-49.88-131.53-49.88-181.7,0a127.18,127.18,0,0,0,0,180.64A129,129,0,0,0,8327.6,1074.15Z"/><path class="cls-2" d="M5176.62,511.06H4744.87V138.25h-199.6v972.53h199.6V690.83h431.75v419.95h199.61V138.25H5176.62Z"/><path class="cls-2" d="M6124.37,381.4h-199.6v729.4h199.6Z"/><path class="cls-2" d="M6304,634.57c70.64,0,127.9-57.07,127.9-127.46S6374.65,379.65,6304,379.65s-127.89,57.07-127.89,127.46S6233.38,634.57,6304,634.57Z"/><path class="cls-2" d="M5740.69,381.72h-199.6v729.4h199.6Z"/><path class="cls-2" d="M5661.47,298.11c69.72-11.28,117.06-76.75,105.74-146.23s-77-116.68-146.73-105.4-117.07,76.75-105.75,146.23S5591.74,309.39,5661.47,298.11Z"/></svg>